<?xml version="1.0" encoding="UTF-8"?>
<svg width="151px" height="151px" viewBox="0 0 151 151" version="1.1" xmlns="http://www.w3.org/2000/svg" xmlns:xlink="http://www.w3.org/1999/xlink">
    <!-- Generator: Sketch 44.1 (41455) - http://www.bohemiancoding.com/sketch -->
    <title>Artboard</title>
    <desc>Created with Sketch.</desc>
    <defs>
        <linearGradient x1="50%" y1="100%" x2="50%" y2="0%" id="linearGradient-1">
            <stop stop-color="#5883FF" offset="0%"></stop>
            <stop stop-color="#50EDD1" offset="100%"></stop>
        </linearGradient>
    </defs>
    <g id="Icon" stroke="none" stroke-width="1" fill="none" fill-rule="evenodd">
        <g id="Artboard">
            <rect id="Rectangle" fill="url(#linearGradient-1)" x="0" y="0" width="151" height="151"></rect>
            <path d="M74.55625,121.584416 C79.2278125,121.584416 83.05,117.172078 83.05,111.779221 L66.0625,111.779221 C66.0625,117.172078 69.8846875,121.584416 74.55625,121.584416 Z" id="Shape" fill="#FFFFFF" fill-rule="nonzero"></path>
            <path d="M106.199632,89.4925773 C106.199632,94.0312549 107.972563,98.390398 111.140441,101.640651 L112.543022,103.079703 C114.811613,105.407284 116.08125,108.528968 116.08125,111.779221 L32.0875,111.779221 C32.0875,108.528968 33.357137,105.407284 35.6257282,103.079703 L35.6257282,103.079703 L37.0283088,101.640651 C40.1961869,98.390398 41.9691176,94.0312549 41.9691176,89.4925773 L41.9691176,89.4925773 L41.9691176,68.6902977 C41.9691176,52.975514 52.3448162,40.3023013 66.6731618,36.7538018 L66.6731618,37.019512 C66.6731618,32.964084 70.1317279,29.4155844 74.084375,29.4155844 C78.0370221,29.4155844 81.4955882,32.964084 81.4955882,37.019512 L81.4955882,36.7538018 C95.8239338,40.3023013 106.199632,52.975514 106.199632,68.6902977 L106.199632,89.4925773 Z M96.5324741,92.1011849 L96.5324741,90.4245884 C96.536157,90.3897955 96.5359524,90.3585873 96.5324741,90.3311747 L96.5324741,84.6508632 C96.5324741,82.40535 94.7501377,80.5687061 92.571681,80.5687061 L55.3443592,80.5687061 C53.1656979,80.5687061 51.3833615,82.40535 51.3833615,84.6508632 L51.3833615,92.1760424 C51.3833615,94.4215557 53.1656979,96.2584104 55.3443592,96.2584104 L92.571681,96.2584104 C93.5012131,96.2584104 94.3568819,95.9218681 95.0345422,95.3641272 C96.7687958,96.1224018 99.0554899,96.2584104 99.0554899,96.2584104 C99.0554899,96.2584104 96.8698719,95.1680217 96.5324741,92.1011849 Z M51.6362759,69.1203637 C51.2988781,72.1872005 49.1132601,73.2775892 49.1132601,73.2775892 C49.1132601,73.2775892 51.3999542,73.1415805 53.1342078,72.383306 C53.8118681,72.9410468 54.6675369,73.2775892 55.597069,73.2775892 L92.8243908,73.2775892 C95.0030521,73.2775892 96.7853885,71.4407344 96.7853885,69.1952211 L96.7853885,61.670042 C96.7853885,59.4245287 95.0030521,57.5878848 92.8243908,57.5878848 L55.597069,57.5878848 C53.4186123,57.5878848 51.6362759,59.4245287 51.6362759,61.670042 L51.6362759,67.3503535 C51.6327976,67.3777661 51.632593,67.4089743 51.6362759,67.4437672 L51.6362759,69.1203637 Z" id="Shape" fill="#FFFFFF" fill-rule="nonzero"></path>
        </g>
    </g>
</svg>